<?xml version="1.0" encoding="utf-8"?>
<!-- Generator: Adobe Illustrator 27.5.0, SVG Export Plug-In . SVG Version: 6.00 Build 0)  -->
<svg version="1.1" xmlns="http://www.w3.org/2000/svg" xmlns:xlink="http://www.w3.org/1999/xlink" x="0px" y="0px"
	 viewBox="0 0 3710 3710" style="enable-background:new 0 0 3710 3710;" xml:space="preserve">
<g id="Background">
	<g>
		<g>
			<rect style="fill:#FFFFFF;" width="3710" height="3710"/>
		</g>
	</g>
</g>
<g id="Illustration">
	<g>
		<path style="fill:#F4F7FA;" d="M1057.377,654.391c-97.244,139.21,16.777,364.904-127.517,469.601
			c-140.459,101.916-313.008-65.138-445.381,22.591c-196.368,130.139-160.508,725.634,126.593,1095.625
			c86.341,111.269,158.484,154.563,190.436,280.403c68.61,270.211-172.519,430.95-126.633,564.592
			c103.32,300.913,1692.306,553.414,2329.878-350.928c297.772-422.366,342.325-1032.265,76.275-1495.487
			C2600.28,403.753,1275.575,342.029,1057.377,654.391z"/>
		<g>
			<g>
				<defs>
					<path id="SVGID_1_" d="M2383.685,2370.05c150.761,1.02,342.963-19.191,527.043-102.453
						c46.978-21.249,337.185-152.513,302.91-284.689c-12.073-46.559-54.212-53.911-71.443-115.879
						c-20.416-73.427,25.68-110.104,57.633-201.615c19.066-54.604,74.864-214.404-20.874-302.883
						c-57.21-52.872-165.944-77.884-248.708-58.562c-121.397,28.34-163.134,146.506-230.294,347.666
						c-59.535,178.321-44.238,222.094-89.35,349.753C2577.122,2096.132,2514.08,2226.577,2383.685,2370.05z"/>
				</defs>
				
					<linearGradient id="SVGID_00000042006403997194630830000013664310762547697025_" gradientUnits="userSpaceOnUse" x1="3130.9778" y1="1307.8905" x2="2770.0833" y2="2276.6089">
					<stop  offset="0.0036" style="stop-color:#E38DDD"/>
					<stop  offset="1" style="stop-color:#9571F6"/>
				</linearGradient>
				
					<use xlink:href="#SVGID_1_"  style="overflow:visible;fill:url(#SVGID_00000042006403997194630830000013664310762547697025_);"/>
				<clipPath id="SVGID_00000133521680829195662940000003479408766713478060_">
					<use xlink:href="#SVGID_1_"  style="overflow:visible;"/>
				</clipPath>
				<g style="opacity:0.5;clip-path:url(#SVGID_00000133521680829195662940000003479408766713478060_);">
					<path style="fill:#FFFFFF;" d="M2004.972,2452.356c-87.31,0.001-176.662-12.079-267.335-36.221l1.829-6.882
						c164.985,43.925,325.515,47.649,477.146,11.068c201.984-48.731,377.192-169.735,520.753-359.648
						c149.549-197.829,227.303-420.854,266.198-573.114c26.915-105.347,21.716-222.005-15.443-346.736l6.823-2.033
						c37.539,125.983,42.758,243.919,15.52,350.532c-39.055,152.893-117.153,376.872-267.415,575.645
						c-144.579,191.261-321.137,313.148-524.766,362.277C2148.88,2443.988,2077.632,2452.356,2004.972,2452.356z"/>
					<path style="fill:#FFFFFF;" d="M2901.655,1791.79l-2.013-2.488c-0.424-0.523-42.775-53.294-76.982-133.838
						c-31.609-74.43-62.59-188.552-30.685-309.547l6.885,1.815c-56.522,214.341,85.759,410.204,104.353,434.562
						c319.124-207.767,315.963-445.168,307.346-513.129c-0.237-1.86-0.358-3.027-0.355-3.454l3.564,0.034l3.557-0.03
						c0.017,0.394,0.132,1.253,0.299,2.554c8.773,69.198,12.112,311.331-313.281,521.78L2901.655,1791.79z"/>
					<path style="fill:#FFFFFF;" d="M2864.735,2072.353c-37.545,0-78.345-2.828-122.554-9.327l-1.885-0.277l-0.814-1.72
						c-0.873-1.84-87.063-186.916-68.157-438.523l19.056-253.577l7.101,0.534l-19.056,253.577
						c-17.787,236.759,58.093,414.01,66.707,433.22c107.837,15.619,263.166,18.195,394.607-56.894
						c79.027-45.146,112.334-97.771,112.66-98.298l6.051,3.755c-1.363,2.201-34.346,54.435-114.768,100.493
						C3086.227,2038.22,2995.168,2072.353,2864.735,2072.353z"/>
				</g>
			</g>
		</g>
		<g>
			<g>
				<g>
					<defs>
						<path id="SVGID_00000021839020975277486150000010005330052877013938_" d="M2221.342,2368.829
							c-115.702-71.389-274.025-193.355-374.643-390.894c-131.957-259.07-48.722-420.504-155.908-882.775
							c-67.773-292.289-118.015-495.589-288.51-575.096c-133.608-62.305-325.068-41.127-422.941,61.753
							c-81.378,85.542-107.583,237.584-103.861,341.547c3.034,84.729,26.107,142.002-12.346,194.788
							c-39.298,53.945-96.5,39.577-134.991,81.443c-78.06,84.903,19.631,293.624,35.42,327.357
							c175.632,375.242,593.436,567.385,776.694,649.004C1691.779,2243.441,1922.059,2327.593,2221.342,2368.829z"/>
					</defs>
					
						<linearGradient id="SVGID_00000142171770918660172060000016157319545526845342_" gradientUnits="userSpaceOnUse" x1="698.2523" y1="1426.9633" x2="2221.342" y2="1426.9633">
						<stop  offset="0" style="stop-color:#FF9085"/>
						<stop  offset="1" style="stop-color:#FB6FBB"/>
					</linearGradient>
					
						<use xlink:href="#SVGID_00000021839020975277486150000010005330052877013938_"  style="overflow:visible;fill:url(#SVGID_00000142171770918660172060000016157319545526845342_);"/>
					<clipPath id="SVGID_00000083797177454272906860000004469866321159319204_">
						<use xlink:href="#SVGID_00000021839020975277486150000010005330052877013938_"  style="overflow:visible;"/>
					</clipPath>
					<g style="opacity:0.5;clip-path:url(#SVGID_00000083797177454272906860000004469866321159319204_);">
						<path style="fill:#FFFFFF;" d="M2347.293,2418.594c-182.438-29.879-343.813-76.973-479.64-139.973
							c-201.021-93.239-340.012-219.058-413.114-373.963c-57.172-121.157-73.724-261.732-94.679-439.705
							c-17.37-147.534-16.375-253.576-15.495-347.135c1.137-121.294,2.034-217.098-38.585-347.11
							c-41.273-132.084-113.078-257.165-213.414-371.766l5.355-4.691c100.997,115.352,173.285,241.296,214.854,374.333
							c40.957,131.081,40.052,227.38,38.908,349.3c-0.876,93.347-1.867,199.15,15.45,346.236
							c21.695,184.261,37.368,317.392,94.046,437.498c72.371,153.355,210.205,278.023,409.671,370.542
							c135.239,62.728,295.992,109.63,477.797,139.405L2347.293,2418.594z"/>
						<path style="fill:#FFFFFF;" d="M1351.855,1360.188l-1.892-3.549c-131.661-246.634-305.555-382.315-428.247-452.707
							c-132.833-76.209-235.687-94.355-236.709-94.529l1.196-7.021c1.036,0.177,105.139,18.54,239.057,95.373
							c122.901,70.511,296.823,206.073,429.044,451.904c16.448-12.376,92.356-72.599,159.31-177.097
							c69.332-108.208,142.983-287.442,100.128-526.818l7.01-1.255c43.286,241.783-31.196,422.849-101.303,532.169
							c-75.96,118.448-163.423,180.604-164.3,181.218L1351.855,1360.188z"/>
						<path style="fill:#FFFFFF;" d="M1409.277,1756.407l-2.58-0.219c-168.41-14.295-375.395-197.671-519.379-348.988
							c-155.707-163.639-273.34-326.027-274.509-327.648l5.773-4.168c1.168,1.618,118.562,163.67,273.949,326.963
							c142.385,149.627,346.498,330.773,512.213,346.515c8.815-20.449,73.46-167.598,165.357-303.646
							c98.977-146.52,378.382-247.047,381.191-248.046l2.385,6.711c-2.789,0.99-280.013,100.745-377.672,245.321
							c-98.135,145.276-165.058,303.24-165.722,304.818L1409.277,1756.407z"/>
						<path style="fill:#FFFFFF;" d="M1718.755,2255.822c-62.617,0-155.026-3.401-262.95-18.025
							c-185.338-25.115-455.719-89.407-691.288-253.071l-454.902-316.048l4.062-5.849l454.902,316.048
							c234.348,162.817,503.488,226.818,687.998,251.838c175.173,23.753,309.279,17.833,340.885,15.915
							c-55.193-64.615-85.28-137.674-89.442-217.259c-3.418-65.348,10.554-135.159,41.527-207.493
							c52.62-122.891,137.392-211.813,138.244-212.697l5.133,4.937c-0.842,0.876-84.824,88.998-136.905,210.739
							c-30.504,71.3-44.257,140.019-40.88,204.246c4.215,80.135,35.296,153.562,92.377,218.241l4.694,5.321l-7.073,0.583
							C1804.462,2253.304,1772.63,2255.822,1718.755,2255.822z"/>
					</g>
				</g>
			</g>
			<g>
				<g>
					<defs>
						<path id="SVGID_00000022528947984357814010000005490893370548709781_" d="M2183.498,2352.991
							c-170.064,130.978-405.396,273.568-685.816,337.674c-71.563,16.36-513.65,117.424-588.605-61.959
							c-26.403-63.188,15.046-107.81-18.778-192.91c-40.08-100.836-123.929-102.729-238.959-178.975
							c-68.638-45.495-269.509-178.639-237.146-361.401c19.34-109.213,121.091-231.204,231.571-280.565
							c162.051-72.402,311.128,25.642,560.499,195.897c221.058,150.925,241.406,213.729,402.485,319.63
							C1728.295,2208.977,1912.103,2302.597,2183.498,2352.991z"/>
					</defs>
					
						<linearGradient id="SVGID_00000018217233587817822920000012785997945751726001_" gradientUnits="userSpaceOnUse" x1="1417.2078" y1="1800.4332" x2="1130.8273" y2="2569.1401">
						<stop  offset="0.0036" style="stop-color:#E38DDD"/>
						<stop  offset="1" style="stop-color:#9571F6"/>
					</linearGradient>
					
						<use xlink:href="#SVGID_00000022528947984357814010000005490893370548709781_"  style="overflow:visible;fill:url(#SVGID_00000018217233587817822920000012785997945751726001_);"/>
					<clipPath id="SVGID_00000159436416839600412860000014006449533544094392_">
						<use xlink:href="#SVGID_00000022528947984357814010000005490893370548709781_"  style="overflow:visible;"/>
					</clipPath>
					<g style="opacity:0.5;clip-path:url(#SVGID_00000159436416839600412860000014006449533544094392_);">
						<path style="fill:#FFFFFF;" d="M1928.354,2375.292c-133.306,0-271.72-20.059-414.623-60.223
							c-341.295-95.922-622.54-282.515-798.374-422.156c-122.477-97.267-217.952-235.267-283.772-410.168l6.663-2.509
							c65.361,173.677,160.085,310.646,281.54,407.1c175.323,139.235,455.715,325.276,795.87,420.877
							c326.659,91.807,629.859,78.113,901.172-40.708c203.66-89.19,382.673-231.803,532.068-423.875l5.619,4.373
							c-150.129,193.018-330.074,336.355-534.829,426.026C2265.602,2341.509,2101.288,2375.292,1928.354,2375.292z"/>
						<path style="fill:#FFFFFF;" d="M984.73,2146.406c-467.935,0-648.126-245.414-694.24-325.318
							c-0.994-1.722-1.624-2.841-1.937-3.274l5.644-4.342c0.449,0.576,0.984,1.492,2.462,4.055
							c48.906,84.742,250.49,357.667,793.158,317.803c0.153-17.567-0.602-105.297-27.805-212.664
							c-27.934-110.239-90.276-264.355-228.656-372.52l4.388-5.611c140.028,109.454,203.027,265.204,231.222,376.588
							c30.521,120.578,27.948,216.669,27.92,217.626l-0.101,3.199l-3.192,0.241C1055.71,2145.055,1019.393,2146.406,984.73,2146.406
							z"/>
						<path style="fill:#FFFFFF;" d="M931.362,2597.376c-86.33,0-139.134-19.773-139.798-20.028l2.549-6.65
							c0.828,0.316,84.125,31.417,212.927,14.556c118.662-15.534,301.274-76.098,498.073-276.343
							c-5.689-24.865-71.45-294.226-297.939-550.119L967.211,1487.68l5.334-4.721l239.964,271.112
							c237.833,268.71,299.393,552.388,299.987,555.223l0.393,1.863l-1.335,1.36c-198.921,202.976-383.904,264.223-504.058,279.86
							C979.962,2595.96,954.459,2597.376,931.362,2597.376z"/>
					</g>
				</g>
			</g>
			<g>
				<g>
					<defs>
						<path id="SVGID_00000005986115854235673800000016605808918396382848_" d="M2142.883,2506.67
							c-12.926-17.573-90.697-119.972-213.779-124.236c-103.04-3.57-181.839,63.578-200.091,79.132
							c-73.5,62.632-65.008,112.591-124.377,132.87c-70.499,24.081-121.096-33.175-166.688-0.121
							c-31.452,22.803-40.664,74.186-27.912,110.017c22.381,62.893,117.762,92.863,190.096,77.826
							c99.657-20.716,101.904-115.708,215.058-146.223c65.755-17.733,84.908,8.976,154.852-8.16
							C2051.26,2607.876,2107.631,2551.724,2142.883,2506.67z"/>
					</defs>
					
						<linearGradient id="SVGID_00000153703436230569035580000011476264606879572662_" gradientUnits="userSpaceOnUse" x1="1404.4901" y1="2584.1406" x2="2142.8826" y2="2584.1406">
						<stop  offset="0" style="stop-color:#FF9085"/>
						<stop  offset="1" style="stop-color:#FB6FBB"/>
					</linearGradient>
					
						<use xlink:href="#SVGID_00000005986115854235673800000016605808918396382848_"  style="overflow:visible;fill:url(#SVGID_00000153703436230569035580000011476264606879572662_);"/>
					<clipPath id="SVGID_00000021112528671550869820000004970236214140653735_">
						<use xlink:href="#SVGID_00000005986115854235673800000016605808918396382848_"  style="overflow:visible;"/>
					</clipPath>
					<g style="opacity:0.5;clip-path:url(#SVGID_00000021112528671550869820000004970236214140653735_);">
						<path style="fill:#FFFFFF;" d="M1576.808,2689.135c-61.136,0.002-135.58-30.5-222.282-91.201l2.045-2.918
							c116.141,81.317,209.812,108.056,278.403,79.489c43.227-18.003,64.645-51.946,87.317-87.883
							c25.514-40.439,51.893-82.255,111.76-102.215c46.041-15.348,99.359-8,205.587,6.639
							c53.086,7.316,106.13,17.918,157.668,31.513l-0.911,3.442c-51.396-13.557-104.298-24.131-157.237-31.427
							c-105.688-14.566-158.732-21.875-203.98-6.79c-58.66,19.558-84.695,60.826-109.875,100.736
							c-22.982,36.427-44.691,70.835-88.959,89.272C1618.178,2685.358,1598.312,2689.135,1576.808,2689.135z"/>
						<path style="fill:#FFFFFF;" d="M1455.158,2792.203l-0.807-3.469c126.174-29.284,160.415-100.257,163.462-107.15
							c-11.326-38.98-44.375-71.935-70.177-92.759c-28.208-22.766-54.105-36.362-54.366-36.497l1.648-3.157
							c1.043,0.544,104.676,55.316,126.49,132.042l0.167,0.578l-0.219,0.56C1621.047,2683.135,1588.975,2761.144,1455.158,2792.203z
							"/>
						<path style="fill:#FFFFFF;" d="M1742.297,2751.378c-12.686-38.136-1.224-94.582,34.068-167.768
							c23.632-49.013,50.603-89.438,55.871-97.189c-56.987-46.434-196.337,63.824-197.745,64.951l-2.225-2.782
							c0.362-0.287,36.447-28.982,79.17-51.1c57.86-29.957,99.697-34.241,124.351-12.733l1.2,1.048l-0.911,1.309
							c-1.203,1.731-119.994,174.166-90.398,263.142L1742.297,2751.378z"/>
						<path style="fill:#FFFFFF;" d="M1865.768,2698.171c-33.564-128.806,139.106-199.877,159.72-207.848
							c-59.23-102.142-207.159-121.477-208.657-121.661l0.438-3.535c1.523,0.188,152.953,19.99,212.35,125.249l1.036,1.839
							l-1.986,0.712c-1.947,0.697-194.139,71.254-159.459,204.347L1865.768,2698.171z"/>
					</g>
				</g>
			</g>
		</g>
		<g>
			<path style="fill:#D8DEE8;" d="M1410.753,1108.181c19.678,9.991,44.4,0.817,55.217-20.49
				c10.818-21.307,3.636-46.679-16.042-56.669c-1.02-0.518-2.06-0.953-3.104-1.369c3.657-11.79,6.413-23.672,8.261-35.559
				c1.128-0.003,2.26-0.022,3.41-0.125c22.45-2.001,40.269-22.631,39.798-46.079c-0.47-23.449-19.051-40.834-41.501-38.833
				c-1.174,0.105-2.326,0.29-3.472,0.494c-2.345-11.62-5.558-22.971-9.612-33.957c1.033-0.605,2.06-1.229,3.064-1.932
				c19.207-13.456,25.348-40.016,13.716-59.322c-11.633-19.305-36.633-24.047-55.841-10.591c-0.984,0.69-1.91,1.435-2.825,2.191
				c-7.587-8.386-15.907-16.159-24.909-23.252c0.633-1.037,1.252-2.089,1.813-3.193c10.818-21.307,24.955-44.581,5.123-54.263
				c-45.877-22.396-65.564-3.224-76.382,18.083c-0.56,1.104-1.043,2.224-1.508,3.348c-11.039-3.082-22.223-5.213-33.471-6.389
				c0.07-1.184,0.125-2.372,0.101-3.573c-0.47-23.447,6.487-36.136-16.048-36.574c-49.142-0.955-65.723,20.374-65.252,43.821
				c0.024,1.225,0.127,2.424,0.249,3.614c-11.261,3.21-22.322,7.314-33.087,12.278c-0.512-1.046-1.042-2.085-1.651-3.095
				c-11.632-19.305-36.633-24.047-55.841-10.589c-19.208,13.457-25.348,40.016-13.716,59.321c0.595,0.99,1.249,1.914,1.911,2.827
				c-8.506,8.507-16.472,17.744-23.833,27.653c-0.952-0.597-1.917-1.18-2.936-1.698c-19.678-9.991-44.4-0.818-55.218,20.49
				c-10.818,21.307-3.636,46.679,16.042,56.669c1.02,0.518,2.06,0.953,3.104,1.369c-3.656,11.79-6.413,23.672-8.26,35.559
				c-1.128,0.003-2.26,0.022-3.41,0.123c-22.45,2.002-40.268,22.632-39.799,46.08c0.47,23.449,19.051,40.833,41.501,38.832
				c1.173-0.104,2.326-0.289,3.472-0.493c2.345,11.621,5.558,22.971,9.612,33.957c-1.033,0.605-2.06,1.229-3.064,1.932
				c-19.207,13.457-25.348,40.016-13.716,59.322c11.633,19.306,50.143,28.275,69.35,14.818c0.985-0.69-11.599-5.662-10.684-6.418
				c7.586,8.386,15.907,16.159,24.909,23.252c-0.633,1.037-1.252,2.089-1.813,3.193c-10.818,21.307-3.636,46.679,16.042,56.67
				c19.678,9.991,44.4,0.817,55.218-20.49c0.56-1.104,1.043-2.225,1.508-3.348c11.039,3.082,22.223,5.213,33.47,6.389
				c-0.07,1.185-0.125,2.372-0.101,3.574c0.471,23.447,19.051,40.833,41.501,38.832c22.451-2.001,40.27-22.632,39.799-46.079
				c-0.025-1.225-0.127-2.424-0.248-3.614c11.261-3.21,22.321-7.314,33.087-12.278c0.511,1.046,1.043,2.085,1.65,3.094
				c11.632,19.306,36.633,24.048,55.841,10.59c19.208-13.458,25.348-40.016,13.716-59.323c-0.596-0.988-1.249-1.913-1.912-2.825
				c8.505-8.507,16.472-17.744,23.832-27.653C1408.768,1107.08,1409.733,1107.664,1410.753,1108.181z M1165.451,1111.294
				c-71.445-36.274-97.523-128.393-58.245-205.755c39.278-77.361,129.036-110.668,200.482-74.393
				c71.446,36.275,97.523,128.394,58.245,205.755C1326.655,1114.262,1236.897,1147.568,1165.451,1111.294z"/>
			<path style="fill:#D8DEE8;" d="M1458.495,993.97c22.45-2.002,40.269-22.632,39.799-46.08
				c-0.47-23.448-19.051-40.834-41.502-38.832c-1.174,0.104-2.326,0.29-3.472,0.494c-2.345-11.621-5.558-22.971-9.612-33.957
				c1.033-0.604,2.06-1.229,3.064-1.932c19.207-13.456,42.97-45.971,29.419-63.982c-25.72-34.183-52.337-19.386-71.544-5.931
				c-0.984,0.69-1.91,1.434-2.825,2.19c-7.587-8.386-15.907-16.158-24.91-23.252c0.634-1.037,1.253-2.089,1.813-3.192
				c5.888-11.596,6.407-24.381,2.519-35.25c-18.552,32.653-36.854,65.442-54.829,98.411
				c56.997,41.766,75.143,124.073,39.516,194.245c-30.19,59.463-90.203,92.852-148.802,88.669c-2.614,6.778-5.18,13.594-7.98,20.308
				c-7.596,18.219-16.225,36.063-24.865,53.884c5.434,1.025,10.891,1.831,16.365,2.404c-0.071,1.185-0.125,2.373-0.101,3.574
				c0.47,23.448,14.706,43.37,55.394,41.211c22.508-1.194,26.377-25.01,25.906-48.458c-0.025-1.224-0.127-2.423-0.248-3.613
				c11.261-3.21,22.321-7.315,33.086-12.278c0.511,1.046,1.043,2.085,1.651,3.094c11.632,19.306,51.986,27.508,71.194,14.051
				c19.208-13.458,9.995-43.477-1.637-62.783c-0.596-0.989-1.249-1.914-1.912-2.827c8.506-8.506,16.472-17.744,23.832-27.652
				c0.952,0.598,1.917,1.181,2.937,1.698c19.677,9.992,44.4,0.817,55.218-20.49c10.818-21.306,3.636-46.679-16.042-56.669
				c-1.02-0.518-2.06-0.953-3.104-1.369c3.657-11.79,6.413-23.672,8.261-35.558C1456.213,994.091,1457.345,994.072,1458.495,993.97z
				"/>
			<path style="fill:#FFFFFF;" d="M1431.917,1110.588c19.677,9.991,44.399,0.818,55.217-20.489
				c10.818-21.307,3.635-46.68-16.042-56.67c-1.019-0.517-2.06-0.953-3.104-1.369c3.656-11.79,6.413-23.672,8.261-35.559
				c1.128-0.003,2.26-0.022,3.41-0.125c22.451-2.001,40.269-22.631,39.799-46.079c-0.47-23.448-19.051-40.834-41.501-38.833
				c-1.174,0.105-2.326,0.29-3.472,0.494c-2.346-11.62-5.558-22.971-9.612-33.957c1.033-0.604,2.06-1.229,3.064-1.932
				c19.207-13.456,25.348-40.016,13.716-59.321c-11.632-19.306-36.633-24.047-55.84-10.591c-0.984,0.69-1.91,1.435-2.825,2.19
				c-7.587-8.386-15.907-16.158-24.91-23.251c0.633-1.038,1.253-2.089,1.814-3.193c10.818-21.307,3.635-46.679-16.042-56.669
				c-19.678-9.991-44.399-0.818-55.217,20.489c-0.56,1.104-1.043,2.225-1.508,3.348c-11.039-3.082-22.223-5.213-33.471-6.389
				c0.07-1.185,0.125-2.372,0.101-3.573c-0.47-23.448-19.051-40.834-41.502-38.833c-22.45,2.001-40.269,22.632-39.799,46.079
				c0.024,1.226,0.126,2.423,0.249,3.614c-11.262,3.211-22.322,7.315-33.087,12.278c-0.512-1.045-1.043-2.085-1.651-3.095
				c-11.632-19.306-36.633-24.047-55.841-10.589c-19.208,13.457-25.348,40.016-13.716,59.322c0.596,0.989,1.249,1.914,1.912,2.827
				c-8.506,8.507-16.472,17.744-23.833,27.652c-0.952-0.597-1.917-1.18-2.936-1.697c-19.678-9.992-44.4-0.818-55.218,20.489
				c-10.818,21.307-3.635,46.679,16.042,56.67c1.019,0.517,2.06,0.953,3.104,1.368c-3.656,11.79-6.413,23.672-8.261,35.559
				c-1.128,0.003-2.259,0.022-3.409,0.124c-22.451,2.002-40.269,22.632-39.799,46.08c0.47,23.448,19.051,40.833,41.501,38.832
				c1.173-0.104,2.326-0.289,3.472-0.493c2.345,11.62,5.558,22.971,9.611,33.957c-1.033,0.604-2.06,1.229-3.064,1.932
				c-19.207,13.456-25.348,40.016-13.716,59.321c11.633,19.306,36.633,24.047,55.84,10.591c0.985-0.69,1.91-1.435,2.826-2.19
				c7.586,8.386,15.907,16.158,24.909,23.251c-0.633,1.038-1.253,2.089-1.813,3.193c-10.818,21.307-3.636,46.679,16.042,56.669
				c19.678,9.99,44.4,0.818,55.217-20.49c0.561-1.104,1.044-2.224,1.508-3.348c11.039,3.082,22.223,5.214,33.471,6.389
				c-0.07,1.185-0.125,2.372-0.101,3.573c0.471,23.448,19.051,40.833,41.501,38.832c22.451-2,40.27-22.632,39.799-46.079
				c-0.025-1.226-0.127-2.423-0.248-3.614c11.261-3.21,22.321-7.314,33.086-12.278c0.512,1.045,1.043,2.085,1.651,3.094
				c11.633,19.306,36.633,24.048,55.84,10.591c19.208-13.457,25.349-40.016,13.717-59.323c-0.597-0.988-1.249-1.913-1.913-2.826
				c8.506-8.506,16.472-17.744,23.833-27.652C1429.933,1109.487,1430.898,1110.07,1431.917,1110.588z M1186.615,1113.7
				c-71.446-36.274-97.523-128.393-58.245-205.754c39.278-77.361,129.036-110.668,200.482-74.393
				c71.445,36.274,97.523,128.393,58.245,205.754C1347.819,1116.668,1258.061,1149.975,1186.615,1113.7z"/>
		</g>
		<g>
			
				<linearGradient id="SVGID_00000047058246552064707620000015884285527418059426_" gradientUnits="userSpaceOnUse" x1="2630.4214" y1="873.3748" x2="2685.4565" y2="-471.0766">
				<stop  offset="0" style="stop-color:#FFC444"/>
				<stop  offset="0.9964" style="stop-color:#F36F56"/>
			</linearGradient>
			<path style="fill:url(#SVGID_00000047058246552064707620000015884285527418059426_);" d="M2715.578,833.54
				c-19.291-62.459-49.428-92.664-72.387-108.63c-49.189-34.208-115.858-38.117-114.002-51.224
				c0.805-5.683,13.992-9.56,17.939-10.72c19.3-5.674,30.102,4.075,40.842-2.343c8.007-4.785,10.181-15.092,11.77-23.163
				c8.044-40.854-15.535-91.128-28.069-127.991c-0.874-2.569-2.841-8.499-0.906-9.905c2.087-1.517,7.635,3.004,9.508,4.529
				c19.943,16.244,44.843,88.762,44.815,88.77c-0.009,0.003,0.033-8.313-7.468-31.972c-13.07-41.221-27.272-60.346-26.029-93.045
				c0.242-6.387,0.506-12.131,2.716-12.786c11.188-3.314,51.403,129.9,58.839,127.441c1.867-0.617,0.825-9.502,0.307-13.926
				c-4.84-41.316-27.582-53.655-25.65-87.048c0.304-5.254,0.748-12.92,3.621-13.731c9.647-2.722,35.251,75.14,47.965,110.757
				c18.985,53.179,43.115,129.521,63.259,226.402C2733.625,814.484,2724.603,824.011,2715.578,833.54z"/>
			
				<linearGradient id="SVGID_00000126308235955691492970000015671719162708203185_" gradientUnits="userSpaceOnUse" x1="1975.2446" y1="-40.7876" x2="1902.9926" y2="49.8336" gradientTransform="matrix(0.9862 -0.1658 0.1658 0.9862 48.7768 863.9162)">
				<stop  offset="0" style="stop-color:#444B8C"/>
				<stop  offset="0.9964" style="stop-color:#3E4177"/>
			</linearGradient>
			<path style="fill:url(#SVGID_00000126308235955691492970000015671719162708203185_);" d="M1893.38,732.678
				c-35.576-11.113-45.12-52.29-48.891-68.564c-8.918-38.477-5.456-104.905,34.842-123.323
				c32.374-14.796,68.547,10.527,73.031,13.763c45.611,32.912,37.047,95.957,36.043,102.553
				c-2.25,14.779-6.891,45.272-33.704,64.225C1952.809,722.669,1924.147,742.289,1893.38,732.678z"/>
			<g style="opacity:0.3;">
				
					<linearGradient id="SVGID_00000174559818727911811410000001147508300257842052_" gradientUnits="userSpaceOnUse" x1="1970.7086" y1="-39.3976" x2="1899.5665" y2="49.8313" gradientTransform="matrix(0.9862 -0.1658 0.1658 0.9862 48.7768 863.9162)">
					<stop  offset="0" style="stop-color:#444B8C"/>
					<stop  offset="0.9964" style="stop-color:#3E4177"/>
				</linearGradient>
				<path style="fill:url(#SVGID_00000174559818727911811410000001147508300257842052_);" d="M1940.517,637.979
					c-23.58-23.37-56.918-13.141-70.972-34.411c-7.018-10.621-8.821-28.539,5.342-60.437
					c-36.083,21.138-38.975,83.976-30.399,120.982c3.772,16.274,13.315,57.452,48.891,68.564
					c30.768,9.611,59.429-10.009,61.321-11.347c1.177-0.833,2.298-1.695,3.391-2.569
					C1962.026,688.173,1959.778,657.067,1940.517,637.979z"/>
			</g>
			
				<linearGradient id="SVGID_00000147934434006036259140000014124379964531045760_" gradientUnits="userSpaceOnUse" x1="2027.5972" y1="113.306" x2="1827.8184" y2="643.2078" gradientTransform="matrix(0.9862 -0.1658 0.1658 0.9862 48.7768 863.9162)">
				<stop  offset="0" style="stop-color:#444B8C"/>
				<stop  offset="0.9964" style="stop-color:#3E4177"/>
			</linearGradient>
			<path style="fill:url(#SVGID_00000147934434006036259140000014124379964531045760_);" d="M1865.252,1551.499
				c0,0-143.178-445.299-142.694-612.828c0.483-167.529,146.612-232.639,211.492-248.124
				c64.848-15.478,202.411,1.549,244.753,190.147c42.329,188.539,11.773,611.259,11.773,611.259L1865.252,1551.499z"/>
			<path style="opacity:0.3;fill:#FFFFFF;" d="M1984.121,1103.157c103.151-12.614,126.014-110.003,220.837-121.264
				c9.183-1.09,19.514-1.415,30.93-0.304c-1.424-18.472-3.196-36.239-5.364-53.036c-12.904-1.588-24.484-1.324-34.655-0.118
				c-94.83,11.242-117.693,108.63-220.852,121.224c-84.141,10.272-121.674-48.049-192.869-22.671
				c-18.341,6.538-33.838,16.83-46.895,28.742c2.964,16.931,6.384,34.539,10.165,52.59c12.835-11.51,27.997-21.429,45.847-27.796
				C1862.455,1055.134,1899.986,1113.445,1984.121,1103.157z"/>
			
				<linearGradient id="SVGID_00000038388202292324332540000001401919689007861422_" gradientUnits="userSpaceOnUse" x1="2096.9243" y1="109.867" x2="1891.2257" y2="655.4705" gradientTransform="matrix(0.9862 -0.1658 0.1658 0.9862 48.7768 863.9162)">
				<stop  offset="0" style="stop-color:#444B8C"/>
				<stop  offset="0.9964" style="stop-color:#3E4177"/>
			</linearGradient>
			<path style="opacity:0.8;fill:url(#SVGID_00000038388202292324332540000001401919689007861422_);" d="M1992.929,1273.879
				c-77.157,8.828-112.443-49.943-177.494-25.838c-12.236,4.534-23.051,11.09-32.604,18.832
				c38.956,149.44,82.421,284.625,82.421,284.625l325.323-59.546c0,0,11.974-165.65,10.547-335.792
				c-2.391,0.126-4.712,0.316-6.954,0.565C2107.193,1166.344,2087.531,1263.055,1992.929,1273.879z"/>
			
				<linearGradient id="SVGID_00000154399178187043059110000003237073795724166819_" gradientUnits="userSpaceOnUse" x1="2033.4952" y1="96.1374" x2="1826.416" y2="645.403" gradientTransform="matrix(0.9862 -0.1658 0.1658 0.9862 48.7768 863.9162)">
				<stop  offset="0" style="stop-color:#444B8C"/>
				<stop  offset="0.9964" style="stop-color:#3E4177"/>
			</linearGradient>
			<path style="opacity:0.3;fill:url(#SVGID_00000154399178187043059110000003237073795724166819_);" d="M2165.875,990.342
				c-86.994,9.567-106.66,106.275-201.282,117.042c-77.174,8.781-112.467-50.017-177.531-25.95
				c-16.314,6.035-30.108,15.659-41.743,26.908c10.526,51.06,23.735,105.683,37.512,158.531
				c9.553-7.742,20.368-14.298,32.604-18.832c65.051-24.105,100.337,34.665,177.494,25.838
				c94.602-10.824,114.264-107.535,201.24-117.154C2196.411,1156.477,2174.301,989.416,2165.875,990.342z"/>
			
				<linearGradient id="SVGID_00000074441500609466899900000002463139070258743723_" gradientUnits="userSpaceOnUse" x1="2108.7073" y1="2635.0139" x2="2146.833" y2="1736.3507">
				<stop  offset="0" style="stop-color:#311944"/>
				<stop  offset="1" style="stop-color:#893976"/>
			</linearGradient>
			<path style="fill:url(#SVGID_00000074441500609466899900000002463139070258743723_);" d="M1428.532,1867.073
				c-62.772-81.781,23.599-266.921,118.411-371.232c110.301-121.354,251.511-154.758,341.102-174.698
				c296.553-66.003,391.69,68.154,541.377-8.798c232.193-119.369,181.238-534.225,286.156-545.688
				c86.155-9.413,221.89,259.356,184.412,525.893c-29.081,206.816-225.781,410.258-424.367,500.838
				c-144.07,65.714-122.194,48.267-450.234,67.219C1645.135,1882.574,1490.41,1947.687,1428.532,1867.073z"/>
			
				<linearGradient id="SVGID_00000112593000771625316130000013498159924616402583_" gradientUnits="userSpaceOnUse" x1="2022.9541" y1="1784.3298" x2="1987.1292" y2="1010.5131">
				<stop  offset="0" style="stop-color:#FFC444"/>
				<stop  offset="0.9964" style="stop-color:#F36F56"/>
			</linearGradient>
			<path style="fill:url(#SVGID_00000112593000771625316130000013498159924616402583_);" d="M1785.054,1346.877
				c60.867-21.927,160.378-26.885,159.332-244.376c0,0,126.066-7.974,130.847-6.395c4.52,1.492-33.397,217.238,142.78,215.77
				c11.98-0.1,15.127,16.739,5.51,24.358c-31.858,25.239-103.712,64.326-210.111,65.563c-67.346,0.783-144.173,15.88-228.715-28.625
				C1773.117,1367.076,1772.282,1351.478,1785.054,1346.877z"/>
			
				<linearGradient id="SVGID_00000128463159917973999360000014967808769861393795_" gradientUnits="userSpaceOnUse" x1="2204.9221" y1="174.5088" x2="2007.6647" y2="697.7228" gradientTransform="matrix(0.9862 -0.1658 0.1658 0.9862 48.7768 863.9162)">
				<stop  offset="0" style="stop-color:#444B8C"/>
				<stop  offset="0.9964" style="stop-color:#3E4177"/>
			</linearGradient>
			<path style="fill:url(#SVGID_00000128463159917973999360000014967808769861393795_);" d="M2216.407,1758.112
				c-35.674,0.449-23.301-301.005-130.018-743.561c-22.137-91.8-43.843-166.644-59.205-216.918
				c37.933-4.857,75.857-9.711,113.768-14.565c65.9,126.647,164.043,362.307,145.358,667.673
				C2277.525,1594.318,2242.646,1757.782,2216.407,1758.112z"/>
			
				<linearGradient id="SVGID_00000072252064681189797060000013208116041886530945_" gradientUnits="userSpaceOnUse" x1="2204.9221" y1="174.5088" x2="2007.6647" y2="697.7228" gradientTransform="matrix(0.9862 -0.1658 0.1658 0.9862 48.7768 863.9162)">
				<stop  offset="0" style="stop-color:#444B8C"/>
				<stop  offset="0.9964" style="stop-color:#3E4177"/>
			</linearGradient>
			<path style="fill:url(#SVGID_00000072252064681189797060000013208116041886530945_);" d="M2216.407,1758.112
				c-35.674,0.449-23.301-301.005-130.018-743.561c-22.137-91.8-43.843-166.644-59.205-216.918
				c37.933-4.857,75.857-9.711,113.768-14.565c65.9,126.647,164.043,362.307,145.358,667.673
				C2277.525,1594.318,2242.646,1757.782,2216.407,1758.112z"/>
			
				<linearGradient id="SVGID_00000140727437923827115650000005682905740632544425_" gradientUnits="userSpaceOnUse" x1="1861.4535" y1="672.9553" x2="1909.6324" y2="-504.005" gradientTransform="matrix(0.9862 -0.1658 0.1658 0.9862 48.7768 863.9162)">
				<stop  offset="0" style="stop-color:#FFC444"/>
				<stop  offset="0.9964" style="stop-color:#F36F56"/>
			</linearGradient>
			<path style="fill:url(#SVGID_00000140727437923827115650000005682905740632544425_);" d="M1820.257,974.685
				c4.827,28.348,27.135,238.658,187.486,203.901c146.443-31.743,107.892-180.432,90.687-255.532c0,0-18.312-66.874-70.947-75.643
				c0,0,52.301,29.188,65.954,113.737c0,0-19.032-42.563-126.729-20.884c-107.782,21.696-122.066,74.629-122.066,74.629
				s-32.835-77.209,14.687-131.238C1859.33,883.655,1822.563,903.949,1820.257,974.685z"/>
			<g style="opacity:0.3;">
				
					<linearGradient id="SVGID_00000106145335586007441150000010647305376162290586_" gradientUnits="userSpaceOnUse" x1="2524.249" y1="2071.5105" x2="2676.5559" y2="326.9201">
					<stop  offset="0.0036" style="stop-color:#E38DDD"/>
					<stop  offset="0.7059" style="stop-color:#AC79EF"/>
					<stop  offset="1" style="stop-color:#9571F6"/>
				</linearGradient>
				<path style="fill:url(#SVGID_00000106145335586007441150000010647305376162290586_);" d="M2864.684,954.14
					c20.084,116.559-1.459,191.845-32.875,242.522c-70.741,114.117-195.814,110.616-349.797,290.74
					c-86.199,100.834-91.786,154.316-145.37,231.684c-24.598,35.518-56.734,72.344-99.67,107.879
					c115.747,3.224,138.131,12.271,238.65-33.577c198.586-90.581,395.287-294.022,424.367-500.838
					C2917.019,1171.435,2898.281,1049.866,2864.684,954.14z"/>
			</g>
		</g>
		<g>
			<g>
				
					<linearGradient id="SVGID_00000093166398631209540930000010113721613522603669_" gradientUnits="userSpaceOnUse" x1="1249.6691" y1="2497.7134" x2="353.9341" y2="2592.7915">
					<stop  offset="0" style="stop-color:#FFC444"/>
					<stop  offset="0.9964" style="stop-color:#F36F56"/>
				</linearGradient>
				<path style="fill:url(#SVGID_00000093166398631209540930000010113721613522603669_);" d="M2901.927,1848.854l-2020.393-69.697
					c-42.663-1.472-78.049,32.715-78.049,75.404v1302.146c0,43.893,37.323,78.521,81.093,75.236l2020.393-151.58
					c39.369-2.954,69.804-35.758,69.804-75.237V1924.257C2974.774,1883.601,2942.56,1850.255,2901.927,1848.854z"/>
			</g>
			<g>
				
					<linearGradient id="SVGID_00000099619812220362881830000008075132585504903582_" gradientUnits="userSpaceOnUse" x1="1728.0024" y1="2106.7185" x2="2473.615" y2="3758.0745">
					<stop  offset="0" style="stop-color:#FFC444"/>
					<stop  offset="0.9964" style="stop-color:#F36F56"/>
				</linearGradient>
				<path style="fill:url(#SVGID_00000099619812220362881830000008075132585504903582_);" d="M2936.656,1848.854l-2020.394-69.697
					c-42.663-1.472-78.049,32.715-78.049,75.404v1302.146c0,43.893,37.323,78.521,81.093,75.236l2020.394-151.58
					c39.369-2.954,69.804-35.758,69.804-75.237V1924.257C3009.503,1883.601,2977.289,1850.255,2936.656,1848.854z"/>
			</g>
			<g>
				
					<linearGradient id="SVGID_00000150069072693160723710000003731592212244349603_" gradientUnits="userSpaceOnUse" x1="1905.3685" y1="2325.5103" x2="1978.7662" y2="721.8887">
					<stop  offset="0" style="stop-color:#FFC444"/>
					<stop  offset="0.9964" style="stop-color:#F36F56"/>
				</linearGradient>
				<path style="fill:url(#SVGID_00000150069072693160723710000003731592212244349603_);" d="M2143.437,2572.958l846.583-699.187
					c-13.241-14.672-32.124-24.184-53.363-24.917l-2020.394-69.697c-19.223-0.663-36.955,5.929-50.652,17.263l1131.755,782.768
					C2041.963,2610.033,2101.626,2607.489,2143.437,2572.958z"/>
				
					<linearGradient id="SVGID_00000170275019826536018680000014532592271294694056_" gradientUnits="userSpaceOnUse" x1="1727.9825" y1="2106.7278" x2="2473.5952" y2="3758.0842">
					<stop  offset="0" style="stop-color:#FFC444"/>
					<stop  offset="0.9964" style="stop-color:#F36F56"/>
				</linearGradient>
				<path style="fill:url(#SVGID_00000170275019826536018680000014532592271294694056_);" d="M2143.437,2572.958
					c-41.81,34.531-101.473,37.076-146.072,6.229L865.61,1796.419c-16.701,13.817-27.397,34.687-27.397,58.141v1302.146
					c0,43.893,37.323,78.521,81.093,75.237l2020.394-151.58c39.369-2.954,69.804-35.758,69.804-75.238V1924.257
					c0-19.404-7.395-37.092-19.484-50.487L2143.437,2572.958z"/>
			</g>
			
				<linearGradient id="SVGID_00000029761439292522421460000000672457826425978039_" gradientUnits="userSpaceOnUse" x1="1939.2153" y1="2011.3529" x2="2684.8279" y2="3662.7095">
				<stop  offset="0" style="stop-color:#FFC444"/>
				<stop  offset="0.9964" style="stop-color:#F36F56"/>
			</linearGradient>
			<path style="opacity:0.37;fill:url(#SVGID_00000029761439292522421460000000672457826425978039_);" d="M2990.02,1873.771
				l-846.583,699.187c-41.81,34.531-101.473,37.076-146.072,6.229L865.61,1796.419c-16.701,13.817-27.397,34.687-27.397,58.141
				v192.04c40.89-17.185,75.49-20.482,103.615-18.132c77.754,6.496,96.319,55.034,245.202,125.103
				c139.206,65.515,153.81,37.593,215.177,85.07c118.225,91.468,66.522,197.039,170.139,295.242
				c107.9,102.261,200.997,22.883,355.292,120.099c163.043,102.728,110.849,223.977,245.201,295.242
				c188.229,99.844,380.442-90.532,540.444,10.008c48.377,30.399,79.308,78.307,99.249,130.671l127.167-9.541
				c39.369-2.954,69.804-35.758,69.804-75.238V1924.257C3009.503,1904.853,3002.108,1887.165,2990.02,1873.771z"/>
		</g>
		<g>
			<path style="fill:#D8DEE8;" d="M1473.231,1455.578c9.295,4.719,20.973,0.386,26.083-9.679c5.11-10.065,1.717-22.05-7.578-26.769
				c-0.482-0.245-0.974-0.45-1.466-0.647c1.727-5.569,3.029-11.182,3.902-16.797c0.532-0.001,1.067-0.01,1.611-0.059
				c10.605-0.945,19.021-10.69,18.8-21.767c-0.222-11.076-8.999-19.289-19.604-18.343c-0.555,0.05-1.099,0.137-1.641,0.233
				c-1.107-5.489-2.625-10.851-4.54-16.041c0.488-0.285,0.973-0.58,1.447-0.912c9.073-6.356,11.973-18.902,6.479-28.022
				c-5.495-9.119-17.305-11.358-26.378-5.002c-0.465,0.326-0.902,0.677-1.335,1.035c-3.584-3.962-7.514-7.633-11.766-10.984
				c0.299-0.49,0.592-0.987,0.856-1.508c5.11-10.065,11.788-21.059,2.42-25.632c-21.671-10.579-30.97-1.523-36.08,8.542
				c-0.265,0.522-0.493,1.051-0.712,1.581c-5.215-1.456-10.497-2.462-15.811-3.018c0.033-0.559,0.059-1.12,0.047-1.688
				c-0.222-11.076,3.064-17.07-7.581-17.276c-23.212-0.451-31.044,9.624-30.823,20.7c0.012,0.579,0.06,1.145,0.117,1.707
				c-5.319,1.516-10.544,3.455-15.629,5.8c-0.241-0.494-0.492-0.985-0.779-1.462c-5.494-9.119-17.304-11.359-26.377-5.002
				c-9.073,6.357-11.974,18.902-6.479,28.022c0.281,0.467,0.589,0.904,0.903,1.335c-4.018,4.018-7.781,8.381-11.258,13.061
				c-0.449-0.281-0.906-0.557-1.387-0.801c-9.295-4.72-20.973-0.386-26.083,9.679c-5.11,10.064-1.717,22.049,7.578,26.769
				c0.482,0.244,0.974,0.45,1.466,0.646c-1.727,5.569-3.029,11.182-3.902,16.797c-0.532,0.001-1.067,0.01-1.61,0.058
				c-10.605,0.946-19.022,10.691-18.8,21.767c0.222,11.076,8.999,19.288,19.604,18.343c0.554-0.049,1.099-0.136,1.64-0.233
				c1.107,5.489,2.625,10.851,4.54,16.041c-0.487,0.285-0.973,0.58-1.447,0.913c-9.073,6.356-11.974,18.902-6.479,28.022
				c5.495,9.12,23.686,13.356,32.759,7c0.465-0.325-5.479-2.675-5.047-3.032c3.584,3.962,7.514,7.633,11.766,10.983
				c-0.299,0.49-0.592,0.987-0.856,1.508c-5.111,10.065-1.717,22.05,7.578,26.769c9.295,4.72,20.973,0.386,26.083-9.679
				c0.265-0.521,0.492-1.051,0.712-1.581c5.214,1.456,10.498,2.463,15.811,3.019c-0.033,0.559-0.059,1.12-0.047,1.688
				c0.222,11.076,8.999,19.288,19.604,18.343c10.605-0.945,19.021-10.691,18.799-21.766c-0.012-0.579-0.06-1.145-0.117-1.707
				c5.32-1.516,10.544-3.455,15.629-5.8c0.242,0.494,0.492,0.985,0.78,1.462c5.495,9.119,17.304,11.359,26.377,5.002
				c9.073-6.357,11.974-18.902,6.479-28.022c-0.282-0.467-0.59-0.904-0.903-1.335c4.018-4.018,7.781-8.381,11.258-13.063
				C1472.293,1455.058,1472.749,1455.334,1473.231,1455.578z M1357.358,1457.049c-33.749-17.135-46.067-60.649-27.513-97.192
				c18.554-36.543,60.953-52.276,94.701-35.141c33.749,17.134,46.067,60.649,27.513,97.192
				C1433.506,1458.45,1391.106,1474.184,1357.358,1457.049z"/>
			<path style="fill:#D8DEE8;" d="M1495.783,1401.629c10.605-0.945,19.021-10.691,18.8-21.767
				c-0.222-11.076-8.999-19.289-19.604-18.343c-0.554,0.049-1.098,0.137-1.639,0.233c-1.108-5.489-2.626-10.851-4.54-16.041
				c0.488-0.285,0.973-0.58,1.447-0.913c9.073-6.356,20.298-21.715,13.897-30.223c-12.149-16.147-24.722-9.157-33.795-2.801
				c-0.465,0.326-0.902,0.677-1.335,1.034c-3.584-3.962-7.514-7.633-11.766-10.983c0.299-0.49,0.592-0.987,0.856-1.508
				c2.781-5.478,3.026-11.517,1.19-16.652c-8.763,15.425-17.409,30.913-25.9,46.487c26.924,19.729,35.496,58.608,18.666,91.755
				c-14.261,28.088-42.609,43.86-70.289,41.884c-1.235,3.202-2.447,6.421-3.77,9.593c-3.588,8.606-7.664,17.035-11.746,25.453
				c2.567,0.484,5.145,0.865,7.731,1.135c-0.034,0.56-0.059,1.12-0.048,1.688c0.222,11.076,6.947,20.487,26.166,19.467
				c10.632-0.564,12.459-11.815,12.237-22.891c-0.012-0.578-0.06-1.145-0.117-1.707c5.32-1.517,10.544-3.455,15.629-5.8
				c0.242,0.494,0.493,0.985,0.78,1.461c5.495,9.12,24.556,12.994,33.63,6.637c9.073-6.357,4.721-20.537-0.774-29.657
				c-0.282-0.467-0.59-0.904-0.903-1.335c4.018-4.018,7.781-8.382,11.258-13.062c0.449,0.283,0.905,0.558,1.387,0.802
				c9.295,4.72,20.973,0.386,26.083-9.679c5.11-10.064,1.717-22.049-7.578-26.768c-0.482-0.245-0.973-0.45-1.466-0.647
				c1.727-5.569,3.029-11.182,3.902-16.796C1494.705,1401.686,1495.24,1401.677,1495.783,1401.629z"/>
			<path style="fill:#FFFFFF;" d="M1483.228,1456.716c9.295,4.719,20.973,0.386,26.083-9.679c5.11-10.065,1.717-22.049-7.578-26.769
				c-0.482-0.245-0.973-0.45-1.466-0.647c1.727-5.569,3.029-11.182,3.902-16.797c0.533-0.001,1.067-0.01,1.61-0.059
				c10.605-0.945,19.021-10.69,18.8-21.766s-8.999-19.289-19.604-18.343c-0.554,0.05-1.099,0.137-1.64,0.233
				c-1.107-5.489-2.625-10.851-4.54-16.041c0.487-0.285,0.973-0.58,1.447-0.913c9.073-6.356,11.973-18.902,6.479-28.022
				c-5.495-9.119-17.304-11.359-26.377-5.003c-0.465,0.326-0.902,0.677-1.335,1.035c-3.584-3.962-7.514-7.632-11.766-10.983
				c0.299-0.49,0.592-0.987,0.856-1.508c5.11-10.065,1.717-22.05-7.578-26.769c-9.295-4.719-20.973-0.386-26.083,9.679
				c-0.265,0.521-0.493,1.051-0.712,1.581c-5.214-1.456-10.498-2.463-15.811-3.018c0.033-0.559,0.059-1.12,0.048-1.688
				c-0.223-11.076-8.999-19.288-19.604-18.343c-10.605,0.945-19.022,10.691-18.8,21.767c0.012,0.578,0.06,1.145,0.117,1.707
				c-5.319,1.517-10.544,3.455-15.629,5.8c-0.242-0.494-0.492-0.985-0.779-1.462c-5.495-9.12-17.305-11.359-26.378-5.002
				c-9.073,6.357-11.974,18.902-6.479,28.022c0.281,0.468,0.589,0.904,0.903,1.335c-4.018,4.018-7.781,8.382-11.258,13.063
				c-0.449-0.282-0.905-0.558-1.387-0.802c-9.295-4.719-20.973-0.386-26.083,9.679c-5.11,10.065-1.718,22.05,7.578,26.769
				c0.482,0.245,0.974,0.45,1.466,0.647c-1.727,5.569-3.029,11.182-3.901,16.797c-0.533,0.002-1.068,0.01-1.611,0.059
				c-10.605,0.945-19.022,10.691-18.8,21.767c0.222,11.076,8.999,19.288,19.604,18.343c0.554-0.049,1.099-0.136,1.64-0.233
				c1.108,5.489,2.625,10.851,4.541,16.041c-0.488,0.285-0.973,0.58-1.448,0.913c-9.073,6.356-11.974,18.902-6.479,28.022
				c5.494,9.119,17.304,11.359,26.377,5.003c0.465-0.326,0.902-0.678,1.334-1.035c3.584,3.962,7.515,7.633,11.766,10.983
				c-0.299,0.49-0.592,0.987-0.856,1.508c-5.11,10.065-1.717,22.05,7.578,26.769c9.295,4.719,20.973,0.386,26.083-9.679
				c0.265-0.521,0.492-1.051,0.712-1.581c5.214,1.456,10.498,2.463,15.811,3.018c-0.033,0.56-0.059,1.12-0.047,1.688
				c0.222,11.076,8.999,19.288,19.604,18.343c10.605-0.945,19.022-10.691,18.799-21.766c-0.012-0.579-0.06-1.145-0.117-1.707
				c5.32-1.516,10.544-3.455,15.629-5.8c0.241,0.494,0.493,0.985,0.779,1.461c5.495,9.12,17.304,11.359,26.377,5.003
				c9.073-6.357,11.974-18.902,6.479-28.022c-0.282-0.467-0.59-0.904-0.903-1.335c4.018-4.018,7.781-8.381,11.258-13.062
				C1482.291,1456.195,1482.747,1456.471,1483.228,1456.716z M1367.355,1458.185c-33.749-17.134-46.067-60.649-27.513-97.191
				c18.553-36.543,60.953-52.276,94.701-35.141c33.749,17.135,46.067,60.649,27.513,97.192
				C1443.503,1459.588,1401.104,1475.321,1367.355,1458.185z"/>
		</g>
		
			<linearGradient id="SVGID_00000086679626968424551890000017289934659651804597_" gradientUnits="userSpaceOnUse" x1="1044.6617" y1="2697.7195" x2="1446.1857" y2="2697.7195">
			<stop  offset="0" style="stop-color:#AA80F9"/>
			<stop  offset="0.9964" style="stop-color:#6165D7"/>
		</linearGradient>
		<polygon style="opacity:0.3;fill:url(#SVGID_00000086679626968424551890000017289934659651804597_);" points="1044.662,2045.858 
			1044.662,3222.538 1184.286,3349.58 1446.186,3139.875 		"/>
		<g>
			<g>
				<g>
					<g>
						
							<linearGradient id="SVGID_00000115489394183739068070000001225396947510224573_" gradientUnits="userSpaceOnUse" x1="3583.0022" y1="2657.094" x2="4410.9316" y2="2657.094" gradientTransform="matrix(0.9998 0.0199 -0.0199 0.9998 -2497.696 -41.8984)">
							<stop  offset="0" style="stop-color:#444B8C"/>
							<stop  offset="0.9964" style="stop-color:#26264F"/>
						</linearGradient>
						<path style="fill:url(#SVGID_00000115489394183739068070000001225396947510224573_);" d="M1727.088,2069.656l120.595,1212.873
							c1.795,18.061-10.641,33.852-27.681,35.095l-587.585,49.215c-35.819,1.257-55.148-18.038-57.093-37.15l-130.663-1283.83
							c-1.963-19.286,15.932-36.354,52.116-35.618l595.59,25.11C1709.673,2036.003,1725.277,2051.441,1727.088,2069.656z"/>
						<path style="fill:#26264F;" d="M1753.802,2068.11l121.103,1219.123c1.803,18.154-10.682,34.028-27.791,35.282l-609.177,44.655
							c-19.019,1.394-36.222-13.18-38.176-32.393l-131.248-1290.635c-1.971-19.388,12.271-34.653,31.596-33.923l618.831,23.406
							C1736.316,2034.282,1751.983,2049.8,1753.802,2068.11z"/>
						
							<linearGradient id="SVGID_00000074418309247537947830000001984064479408843451_" gradientUnits="userSpaceOnUse" x1="-1893.8785" y1="2705.2205" x2="-1453.8654" y2="5026.2852" gradientTransform="matrix(-1 0 0 1 -421.0958 0)">
							<stop  offset="0.0036" style="stop-color:#E38DDD"/>
							<stop  offset="1" style="stop-color:#9571F6"/>
						</linearGradient>
						<path style="fill:url(#SVGID_00000074418309247537947830000001984064479408843451_);" d="M1740.978,2135.379l112.321,1129.946
							c1.686,16.962-10.002,31.768-26.014,32.906l-572.97,40.727c-17.686,1.257-33.682-12.349-35.501-30.24l-121.138-1192.103
							c-1.833-18.042,11.392-32.337,29.341-31.765l581.371,18.503C1724.631,2103.869,1739.278,2118.281,1740.978,2135.379z"/>
					</g>
					<path style="fill:#FFFFFF;" d="M1432.806,2060.646c0.655,6.522-3.949,11.635-10.29,11.422
						c-6.347-0.214-12.03-5.685-12.686-12.218c-0.657-6.534,3.962-11.648,10.311-11.422
						C1426.484,2048.655,1432.151,2054.125,1432.806,2060.646z"/>
				</g>
			</g>
			<g style="opacity:0.66;">
				<path style="fill:#F4F7FA;" d="M1378.562,2388.872c-68.486,35.637-97.807,114.875-65.489,176.983
					c32.318,62.108,114.036,83.566,182.523,47.929L1378.562,2388.872z"/>
				<path style="fill:#F4F7FA;" d="M1495.596,2613.784L1495.596,2613.784l-117.034-224.912h0
					c31.891-16.594,71.195-4.194,87.79,27.696l56.94,109.426C1539.887,2557.885,1527.487,2597.189,1495.596,2613.784z"/>
				<path style="fill:#F4F7FA;" d="M1544.586,2715.121c-68.487,35.637-97.807,114.875-65.489,176.983
					c32.318,62.108,114.036,83.566,182.523,47.929L1544.586,2715.121z"/>
				<path style="fill:#F4F7FA;" d="M1661.62,2940.032L1661.62,2940.032l-117.034-224.912l0,0
					c31.891-16.594,71.196-4.194,87.79,27.696l56.94,109.426C1705.91,2884.133,1693.51,2923.438,1661.62,2940.032z"/>
				<path style="fill:#F4F7FA;" d="M1562.532,2871.31l-71.228,37.064c-91.024-88.623-152.53-206.824-184.518-354.603l71.228-37.064
					L1562.532,2871.31z"/>
			</g>
			<g style="opacity:0.3;">
				<path style="fill:#F4F7FA;" d="M1376.406,2655.729c-60.543-178.886,44.836-269.006-14.842-434.695
					c-32.468-90.15-97.464-157.305-168.966-207.318l-92.488-3.498c-19.326-0.731-33.567,14.534-31.597,33.923l131.249,1290.635
					c1.952,19.213,19.157,33.787,38.175,32.393l525.938-38.553c-1.652-134.761-35.888-230.671-73.964-298.851
					C1585.278,2842.412,1439.096,2840.962,1376.406,2655.729z"/>
			</g>
		</g>
	</g>
</g>
</svg>
